<svg width="16" height="20" viewBox="0 0 16 20" fill="none" xmlns="http://www.w3.org/2000/svg">
<path fill-rule="evenodd" clip-rule="evenodd" d="M6.11111 0C5.37473 0 4.77778 0.596952 4.77778 1.33333C4.77778 1.70152 4.4793 2 4.11111 2L4 2L1 2C0.447715 2 0 2.44772 0 3C0 3.55228 0.447715 4 1 4L4 4H4.11111L11.8873 4C11.8878 4 11.8884 4 11.8889 4H12L15 4C15.5523 4 16 3.55228 16 3C16 2.44772 15.5523 2 15 2H11.8881C11.5203 1.99956 11.2222 1.70126 11.2222 1.33333C11.2222 0.596954 10.6253 0 9.88889 0H6.11111Z" fill="white"/>
<path fill-rule="evenodd" clip-rule="evenodd" d="M2 6C1.72035 6 1.45348 6.1171 1.26412 6.32289C1.07477 6.52868 0.980234 6.80436 1.00346 7.08305L1.77422 16.3322C1.94698 18.4054 3.68005 20 5.7604 20H10.2396C12.32 20 14.053 18.4054 14.2258 16.3322L14.9965 7.08305C15.0198 6.80436 14.9252 6.52868 14.7359 6.32289C14.5465 6.1171 14.2797 6 14 6H2Z" fill="white"/>
</svg>
