<svg width="256" height="88" viewBox="0 0 256 88" fill="none" xmlns="http://www.w3.org/2000/svg">
<path d="M1.00027 75.4057V61.1663H29.7736V3.25943C29.7736 3.25943 46.0356 -1.07428 55.2108 3.25943C61.0169 6.00179 64.8631 8.41635 68.138 14.1763C76.2339 28.4157 72.7046 41.764 62.7169 50.7241C53.5082 58.9854 32.6926 50.7241 32.6926 50.7241" stroke="#FFF1D4" stroke-width="2" stroke-linecap="round"/>
<path d="M41.8665 53.572L60.728 85.848L74.8099 69.71" stroke="#FFF1D4" stroke-width="2" stroke-linecap="round"/>
<path d="M118.43 55.9452C118.43 64.0277 116.189 71.3009 112.619 76.5255C109.046 81.755 104.212 84.848 98.9965 84.848C93.781 84.848 88.9471 81.755 85.3737 76.5255C81.8037 71.3009 79.5633 64.0277 79.5633 55.9452C79.5633 47.8628 81.8037 40.5896 85.3737 35.365C88.9471 30.1355 93.781 27.0425 98.9965 27.0425C104.212 27.0425 109.046 30.1355 112.619 35.365C116.189 40.5896 118.43 47.8628 118.43 55.9452Z" stroke="#FFF1D4" stroke-width="2"/>
<path d="M126.008 27.941C126.008 27.941 124.341 53.5719 126.008 65.9127C127.676 78.2535 133.514 82.5254 136.016 83.9493C138.519 85.3732 149.36 87.7465 154.782 83.9493C160.203 80.1521 163.122 75.4057 164.79 65.9127C166.458 56.4198 164.79 27.941 164.79 27.941" stroke="#FFF1D4" stroke-width="2" stroke-linecap="round"/>
<path d="M175.181 1.36092C175.181 1.36092 174.764 69.2354 175.181 72.0833C175.598 74.9311 180.602 80.1523 182.27 81.5762C183.938 83.0001 187.632 85.4394 191.444 85.3734C195.103 85.31 197.245 84.031 200.201 81.5762C203.49 78.8452 205 76.4105 206.456 72.0833C207.348 69.4355 207.635 67.7979 207.707 64.9636" stroke="#FFF1D4" stroke-width="2" stroke-linecap="round"/>
<path d="M176.247 28.8902H208.356" stroke="#FFF1D4" stroke-width="2" stroke-linecap="round"/>
<path d="M254.998 66.6772C254.998 66.6772 252.58 75.1701 249.16 79.018C246.1 82.4607 243.801 84.3095 239.569 85.1884C235.694 85.9931 233.203 85.4715 229.561 83.7645C226.846 82.4922 225.409 81.3495 223.306 79.018C219.861 75.1991 218.781 71.9429 217.468 66.6772C216.439 62.5524 216.44 55.7603 216.44 55.7603M216.44 55.7603C216.44 55.7603 216.315 52.8844 216.44 51.9632C217.468 44.3688 222.472 36.2998 222.472 36.2998C222.472 36.2998 225.391 31.4754 229.561 30.1294C232.538 29.1686 236.538 28.4715 239.569 29.1801C243.707 30.1477 246.045 31.6271 249.16 34.8759C251.245 37.0506 253.078 40.1707 254.164 44.8435C255.08 48.7857 254.998 55.7603 254.998 55.7603H216.44Z" stroke="#FFF1D4" stroke-width="2" stroke-linecap="round"/>
</svg>
